<?xml version="1.0" standalone="no"?>
<!DOCTYPE svg PUBLIC "-//W3C//DTD SVG 20010904//EN"
 "http://www.w3.org/TR/2001/REC-SVG-20010904/DTD/svg10.dtd">
<svg version="1.0" xmlns="http://www.w3.org/2000/svg"
 width="1024.000000pt" height="1024.000000pt" viewBox="0 0 1024.000000 1024.000000"
 preserveAspectRatio="xMidYMid meet">
<metadata>
Created by potrace 1.14, written by Peter Selinger 2001-2017
</metadata>
<g transform="translate(0.000000,1024.000000) scale(0.100000,-0.100000)"
fill="#000000" stroke="none">
<path d="M2413 8353 c-21 -37 -45 -80 -53 -94 -17 -31 -85 -148 -292 -504 -80
-137 -171 -295 -203 -350 -32 -55 -99 -170 -148 -255 -50 -85 -100 -172 -111
-192 -12 -20 -57 -98 -101 -174 -44 -76 -89 -154 -100 -173 -12 -20 -27 -47
-35 -61 -8 -14 -15 -27 -16 -30 0 -3 -9 -23 -18 -44 -10 -22 -26 -72 -36 -110
-24 -90 -22 -279 4 -376 37 -138 131 -293 235 -385 133 -117 309 -191 456
-190 l69 0 62 105 c35 58 71 121 82 140 25 45 45 79 127 220 37 63 79 135 93
160 13 25 33 57 43 72 11 14 19 28 19 31 0 2 52 94 116 203 125 213 133 227
186 319 94 163 221 381 277 477 l63 108 2029 2 2029 3 -85 140 c-47 77 -89
147 -94 155 -5 8 -44 71 -85 140 -42 69 -110 179 -151 245 -41 66 -79 129 -85
140 -5 11 -54 92 -108 180 l-98 160 -2016 3 -2016 2 -39 -67z"/>
<path d="M3523 6798 c-9 -10 -12 -18 -8 -18 4 0 1 -8 -7 -17 -8 -10 -31 -47
-51 -83 -19 -36 -61 -110 -92 -165 -32 -55 -67 -118 -79 -140 -27 -48 -215
-380 -296 -520 -32 -55 -74 -131 -95 -170 -21 -38 -41 -74 -45 -80 -5 -5 -20
-32 -36 -60 -15 -27 -83 -149 -152 -270 -69 -121 -136 -240 -150 -265 -13 -25
-29 -50 -34 -57 -7 -9 -3 -22 14 -41 28 -36 270 -315 278 -322 3 -3 64 -72
135 -155 70 -82 133 -154 139 -160 6 -5 49 -55 96 -110 47 -55 92 -107 100
-115 8 -9 26 -30 40 -46 34 -41 153 -176 166 -190 5 -7 59 -68 118 -137 l108
-125 1005 2 1006 1 47 80 c48 81 411 711 448 775 11 19 43 76 72 125 29 50 62
108 75 130 12 22 52 90 88 152 53 92 62 113 49 117 -10 2 -489 3 -1067 2 -577
-2 -1054 -1 -1058 2 -5 2 -2 11 6 20 8 10 63 94 122 187 107 170 234 366 241
374 2 2 935 4 2073 4 l2069 0 35 76 c56 124 72 199 72 341 0 148 -5 180 -41
289 -77 233 -264 432 -494 524 -163 65 36 60 -2543 61 -2218 1 -2339 0 -2354
-16z"/>
<path d="M6829 4491 c-145 -250 -280 -482 -300 -516 -19 -33 -98 -168 -175
-300 -76 -132 -144 -249 -151 -260 -7 -11 -17 -29 -22 -40 -5 -11 -52 -92
-104 -180 l-94 -160 -1701 0 c-935 0 -1702 -2 -1705 -5 -15 -16 -58 -116 -78
-180 -18 -61 -23 -99 -23 -205 -1 -134 2 -162 29 -255 18 -61 65 -163 77 -168
4 -2 8 -9 8 -14 0 -6 18 -35 40 -64 126 -167 313 -281 511 -314 42 -6 656 -10
1804 -10 l1740 0 170 292 c94 161 175 302 181 313 9 17 141 243 210 362 33 56
258 444 285 492 15 25 59 102 99 171 40 69 107 184 148 255 41 72 94 162 117
200 23 39 45 77 48 85 4 8 15 29 26 45 16 27 202 346 253 435 130 225 254 439
264 455 13 20 11 20 -690 20 l-703 0 -264 -454z"/>
</g>
</svg>
